<svg xmlns="http://www.w3.org/2000/svg" width="155" height="48" fill="none" viewBox="0 0 155 48">
    <path fill="#B2B2B2" fill-rule="evenodd" d="M63.896 9.29c-.576-.346-1.188-.628-1.826-.84-.692-.229-1.416-.343-2.145-.337-.394 0-.754.037-1.08.113-.297.065-.582.175-.846.327-.222.128-.412.306-.555.52-.135.21-.204.453-.2.702-.008.233.068.461.215.643.143.17.344.317.6.434.256.12.562.22.916.303.353.082.74.156 1.16.222l.79.129c.597.091 1.185.237 1.756.434.509.173.987.427 1.415.752.4.31.716.686.947 1.128.229.442.344.963.344 1.563 0 .765-.157 1.43-.47 1.994-.31.558-.742 1.039-1.265 1.404-.556.385-1.177.668-1.832.836-.706.186-1.434.28-2.165.277-.533 0-1.07-.039-1.61-.114-.533-.075-1.06-.189-1.577-.341-.502-.149-.99-.34-1.46-.569-.445-.217-.866-.48-1.255-.786l1.45-2.226c.253.198.544.387.87.57.712.387 1.48.659 2.276.806.424.077.862.117 1.315.117.387 0 .749-.036 1.086-.109.337-.072.629-.18.876-.326.23-.13.427-.308.58-.523.14-.206.21-.442.21-.713 0-.237-.063-.442-.19-.614-.15-.19-.344-.341-.565-.44-.298-.139-.61-.245-.931-.316-.425-.1-.854-.184-1.285-.252l-.89-.139c-.583-.09-1.155-.233-1.711-.43-.491-.171-.948-.427-1.35-.757-.38-.315-.684-.71-.891-1.157-.214-.455-.32-.996-.32-1.623 0-.718.151-1.352.455-1.904.304-.55.71-1.009 1.22-1.374.539-.38 1.14-.661 1.777-.831.694-.19 1.41-.285 2.13-.282.487 0 .96.027 1.416.084.907.11 1.793.354 2.63.722.43.188.866.41 1.306.667l-1.32 2.256h-.001zm9.253.515c.668 0 1.288.128 1.861.385.563.25 1.07.61 1.491 1.058.42.449.75.981.99 1.598.24.616.36 1.284.36 2.003.006.684-.114 1.363-.355 2.003-.221.592-.556 1.135-.985 1.598-.42.448-.917.8-1.49 1.058-.586.26-1.22.391-1.862.386-.653 0-1.212-.115-1.675-.341-.45-.218-.85-.526-1.175-.906v4.956h-2.601V10.062h2.55v1.058c.32-.396.716-.714 1.186-.955.47-.24 1.038-.36 1.705-.36zm6.833 9.842h2.61v-9.585h-2.61v9.585zm9.443-9.842c.653 0 1.212.114 1.675.346.464.23.856.533 1.176.91V5.402h2.601v14.244h-2.55v-1.058c-.32.389-.717.704-1.192.945-.472.24-1.043.361-1.71.361-.64.005-1.275-.126-1.86-.386-.563-.25-1.07-.61-1.491-1.058-.43-.464-.764-1.006-.985-1.598-.242-.64-.362-1.32-.356-2.003 0-.72.118-1.387.356-2.003.236-.617.565-1.15.985-1.598.42-.448.916-.8 1.49-1.058.586-.26 1.22-.391 1.861-.385zm12.495-.001c.7 0 1.34.122 1.915.366.563.235 1.07.585 1.487 1.03.413.44.735.972.964 1.59.23.622.346 1.304.346 2.049 0 .29-.016.581-.05.87H99.71c.066.35.176.65.33.896.153.247.338.454.555.618.217.165.461.285.735.361.273.076.563.113.87.113.42 0 .846-.078 1.276-.237.43-.158.822-.385 1.175-.682l1.53 1.662c-.539.492-1.174.868-1.865 1.103-.731.24-1.497.359-2.266.351-.74 0-1.419-.121-2.035-.361-.595-.227-1.137-.574-1.591-1.02-.452-.45-.804-.988-1.036-1.582-.247-.616-.37-1.3-.37-2.053 0-.752.12-1.439.36-2.061.224-.597.566-1.142 1.006-1.603.437-.45.963-.804 1.545-1.039.632-.254 1.309-.38 1.99-.371h.001zm12.104 0c.28 0 .532.018.756.054.222.036.425.088.605.154l-.39 2.562c-.241-.1-.493-.175-.75-.223-.274-.055-.552-.083-.831-.084-.3 0-.576.046-.825.139-.242.087-.462.225-.645.405-.18.178-.32.403-.42.672-.106.302-.156.62-.15.94v5.224h-2.612v-9.585h2.531v1.048c.281-.433.678-.777 1.146-.994.456-.208.985-.312 1.585-.312zM63.896 29.302c-.576-.346-1.188-.628-1.826-.84-.692-.229-1.416-.343-2.145-.337-.394 0-.754.037-1.08.113-.297.065-.582.175-.846.327-.222.128-.412.306-.555.52-.135.21-.204.453-.2.702-.008.233.068.462.215.643.143.171.344.317.6.435s.562.22.916.302c.353.083.74.156 1.16.222l.79.13c.597.091 1.185.237 1.756.434.509.173.987.427 1.415.752.4.31.716.685.947 1.127.229.442.344.963.344 1.563 0 .766-.157 1.43-.47 1.994-.31.558-.742 1.039-1.265 1.404-.556.385-1.177.668-1.832.836-.706.186-1.434.28-2.165.277-.533 0-1.07-.038-1.61-.114-.533-.075-1.06-.189-1.577-.341-.502-.149-.99-.34-1.46-.569-.445-.217-.866-.48-1.255-.786l1.45-2.226c.253.198.544.388.87.57.712.387 1.48.659 2.276.806.424.078.862.117 1.315.117.387 0 .749-.036 1.086-.108.337-.073.629-.181.876-.326.23-.13.427-.309.58-.524.14-.206.21-.442.21-.712 0-.238-.063-.443-.19-.614-.15-.19-.344-.341-.565-.44-.298-.14-.61-.246-.931-.317-.425-.1-.854-.184-1.285-.252l-.89-.138c-.583-.09-1.155-.234-1.711-.431-.491-.171-.948-.427-1.35-.757-.38-.315-.684-.71-.891-1.157-.214-.454-.32-.996-.32-1.622 0-.719.151-1.353.455-1.904.298-.545.715-1.015 1.22-1.375.539-.38 1.14-.66 1.777-.83.694-.19 1.41-.286 2.13-.283.487 0 .96.028 1.416.084.907.11 1.793.354 2.63.722.43.188.866.41 1.306.668l-1.32 2.255h-.001zm10.655 3.066H71.04v3.502c0 .297.038.55.115.757.076.208.18.376.31.504.129.13.283.223.46.282.177.06.365.09.565.09.313 0 .628-.064.945-.194.317-.128.608-.271.876-.43l.96 2.018c-.427.29-.897.53-1.41.722-.514.191-1.115.287-1.801.287-1.208 0-2.114-.327-2.721-.98-.607-.652-.91-1.602-.91-2.848v-3.71h-1.872v-2.294h1.871v-2.848h2.612v2.848h3.51v2.294h.001zm7.562-2.551c.28 0 .532.017.756.053.222.037.425.088.605.155l-.39 2.561c-.241-.1-.493-.175-.75-.223-.274-.054-.552-.082-.831-.083-.3 0-.576.045-.825.138-.242.087-.462.226-.645.406-.18.177-.32.402-.42.672-.101.27-.15.583-.15.94v5.223H76.85v-9.585h2.531v1.049c.28-.433.678-.778 1.146-.995.456-.208.985-.311 1.585-.311h.001zm12.355 9.842h-2.55V38.6c-.327.395-.733.717-1.192.945-.473.24-1.043.361-1.71.361-.64.005-1.275-.126-1.86-.385-.563-.25-1.07-.61-1.491-1.059-.43-.463-.764-1.006-.986-1.597-.241-.64-.362-1.32-.355-2.004 0-.719.118-1.387.355-2.002.237-.618.566-1.15.986-1.599.42-.448.916-.8 1.49-1.057.586-.26 1.22-.392 1.861-.386.667 0 1.237.12 1.71.36.474.241.871.56 1.192.955v-1.058h2.55v9.585zm9.774-7.29h-3.511v3.5c0 .298.038.55.115.758.076.208.18.376.31.504.13.13.283.223.46.282.177.06.365.09.565.09.314 0 .629-.064.946-.194.316-.128.608-.271.875-.43l.96 2.018c-.427.29-.897.53-1.41.722-.514.191-1.114.287-1.8.287-1.209 0-2.115-.327-2.722-.98-.607-.652-.91-1.602-.91-2.848v-3.71h-1.871v-2.294h1.87v-2.848h2.612v2.848h3.511v2.295zm6.482-2.553c.7 0 1.34.122 1.915.367.563.234 1.07.585 1.487 1.029.413.44.735.972.964 1.591.231.62.346 1.303.346 2.048 0 .29-.016.581-.05.87h-6.872c.066.35.176.65.33.896.153.248.339.454.555.618.217.165.461.286.735.361.273.076.564.113.871.113.42 0 .845-.078 1.275-.236.43-.159.822-.386 1.175-.682l1.53 1.661c-.539.492-1.173.868-1.864 1.103-.731.24-1.497.359-2.267.351-.74 0-1.419-.12-2.035-.36-.595-.227-1.137-.574-1.591-1.02-.452-.45-.804-.99-1.036-1.583-.247-.616-.37-1.3-.37-2.052s.12-1.44.36-2.062c.224-.597.566-1.142 1.006-1.603.43-.445.945-.79 1.546-1.038.632-.254 1.309-.38 1.99-.372zm10.705 0c.68 0 1.266.119 1.76.357.493.238.906.561 1.24.97v-1.07h2.56v8.795c0 .771-.121 1.462-.365 2.072-.229.59-.588 1.12-1.05 1.552-.476.437-1.038.769-1.65.975-.644.224-1.365.336-2.166.336-.771 0-1.539-.099-2.286-.292-.357-.093-.707-.213-1.046-.36-.319-.138-.624-.307-.91-.505l.93-2.107c.488.316.996.559 1.527.727.53.169 1.088.252 1.674.252.407 0 .78-.054 1.117-.163.335-.108.626-.27.87-.485.244-.213.433-.48.57-.796.143-.348.213-.721.205-1.097v-.673c-.336.404-.758.728-1.235.95-.491.23-1.072.346-1.745.346-.584.002-1.162-.117-1.697-.351-.534-.233-1.017-.57-1.42-.99-.423-.446-.756-.97-.98-1.543-.25-.638-.374-1.318-.366-2.003 0-.739.122-1.408.365-2.008.244-.6.57-1.115.98-1.543.403-.423.886-.76 1.421-.994.535-.234 1.113-.354 1.697-.351v-.001zm8.303 9.842h2.61v-9.584h-2.61v9.584zm1.29-14.382c.232 0 .451.043.654.129.199.08.38.2.532.35.152.152.272.332.354.53.087.205.13.423.13.653.001.218-.041.434-.124.635-.083.201-.206.384-.361.537-.15.148-.327.264-.531.347-.208.083-.43.124-.654.123-.225.002-.447-.04-.656-.123-.198-.078-.377-.196-.529-.345-.151-.15-.27-.328-.351-.525-.084-.206-.127-.427-.125-.649 0-.23.041-.448.125-.652.083-.206.2-.382.35-.53.316-.31.743-.483 1.186-.48zm8.362 4.54c.7 0 1.34.122 1.915.367.563.234 1.07.585 1.487 1.029.413.44.735.972.964 1.591.231.62.346 1.303.346 2.048 0 .29-.016.581-.05.87h-6.872c.066.35.176.65.33.896.153.248.338.454.555.618.217.165.461.286.735.361.273.076.564.113.871.113.42 0 .845-.078 1.275-.236.43-.159.822-.386 1.175-.682l1.53 1.661c-.539.492-1.174.868-1.865 1.103-.731.24-1.497.359-2.266.351-.74 0-1.419-.12-2.035-.36-.595-.227-1.137-.574-1.591-1.02-.452-.45-.804-.99-1.036-1.583-.247-.616-.37-1.3-.37-2.052s.12-1.44.36-2.062c.224-.597.566-1.142 1.006-1.603.43-.445.945-.79 1.546-1.038.632-.254 1.309-.38 1.99-.372zm13.725 2.928c-.459-.216-.937-.394-1.426-.529-.273-.077-.55-.138-.83-.183-.276-.045-.555-.069-.835-.07-.5 0-.874.08-1.12.238-.247.159-.37.37-.37.634-.004.127.041.25.125.346.093.1.208.177.335.227.14.059.306.108.5.144.194.036.4.07.62.104l.86.128c1.054.159 1.863.472 2.426.94.564.468.846 1.11.846 1.929 0 .495-.1.943-.3 1.344-.204.406-.503.757-.871 1.024-.38.28-.847.499-1.4.654-.613.162-1.246.24-1.88.232-.335 0-.686-.018-1.057-.054-.377-.038-.751-.1-1.12-.183-.38-.087-.753-.203-1.115-.346-.36-.142-.702-.325-1.02-.545l1.03-1.958c.206.138.427.264.66.376.514.245 1.062.412 1.626.494.31.047.648.07 1.015.07.607 0 1.057-.08 1.35-.238.294-.159.44-.379.44-.662 0-.232-.126-.416-.38-.554-.254-.14-.663-.247-1.23-.326l-.79-.11c-2.235-.303-3.351-1.272-3.351-2.908 0-.495.093-.935.28-1.32.187-.387.456-.714.81-.985.353-.27.782-.476 1.286-.618.559-.15 1.136-.221 1.715-.213.386 0 .756.019 1.106.055.678.073 1.346.224 1.99.449.317.114.635.248.955.407l-.88 2.007zM20.863 0l-9.792 5.68v10.555l18.905-11.03L20.863 0zM9.335 6.638L0 11.91v16.63l9.335-5.277V6.638zm27.768 2.634L0 30.455v5.282l4.627 2.64 37.104-21.181v-5.283l-4.628-2.64v-.001zM20.867 47.65l9.793-5.678V31.417L11.754 42.446l9.113 5.204zm11.53-6.635l9.334-5.276V19.107l-9.333 5.28v16.628h-.001zm89.692-8.824c-.374 0-.71.066-1.011.197-.291.126-.553.31-.77.54-.216.23-.382.503-.49.8-.114.307-.17.635-.17.985s.056.676.17.98c.108.297.275.568.492.798.217.23.478.412.768.537.319.135.663.203 1.01.198.36 0 .691-.065.99-.193.291-.122.554-.303.771-.53.218-.23.387-.5.495-.796.116-.306.175-.638.175-.994.003-.34-.057-.68-.175-.999-.109-.298-.277-.57-.495-.801-.214-.224-.47-.4-.77-.53-.313-.131-.65-.197-.99-.192zm-32.593.03c-.38 0-.725.068-1.035.207-.3.131-.571.324-.793.566-.222.242-.392.527-.497.838-.118.33-.178.679-.176 1.03 0 .368.059.712.175 1.032.116.32.284.6.5.837.217.237.48.425.79.563.31.139.656.208 1.036.208.373 0 .714-.066 1.02-.198.307-.131.57-.316.79-.553.22-.238.391-.518.511-.841.12-.323.18-.673.18-1.049 0-.376-.06-.726-.18-1.048-.113-.31-.286-.596-.51-.84-.221-.239-.49-.428-.79-.556-.323-.135-.67-.202-1.02-.197l-.001.001zm21.208-.18c-.62 0-1.11.171-1.47.51-.36.34-.597.81-.71 1.41h4.292c-.12-.62-.36-1.095-.72-1.424-.361-.33-.825-.495-1.392-.495v-.001zm28.66 0c-.62 0-1.11.171-1.47.51-.36.34-.597.81-.71 1.41h4.292c-.12-.62-.36-1.095-.72-1.424-.361-.33-.825-.495-1.392-.495v-.001zM89.906 12.209c-.38 0-.726.07-1.036.207-.3.131-.571.324-.793.566-.222.242-.392.528-.497.839-.118.33-.178.678-.176 1.029 0 .369.059.713.176 1.033.116.32.283.599.5.836.216.238.48.426.79.564.31.139.656.208 1.036.208.373 0 .713-.066 1.02-.198.306-.131.57-.317.79-.553.22-.238.39-.518.51-.842.12-.322.18-.672.18-1.048s-.06-.726-.18-1.048c-.113-.31-.286-.596-.51-.84-.221-.239-.49-.428-.79-.556-.323-.135-.67-.202-1.02-.197zm-8.633-6.944c.328-.002.649.092.923.272.274.18.489.437.617.738.087.204.13.421.13.652.001.218-.041.434-.125.635-.083.201-.205.384-.36.537-.15.148-.327.264-.531.346-.208.084-.43.126-.654.124-.234 0-.453-.041-.656-.124-.198-.079-.377-.196-.528-.346-.151-.15-.271-.327-.352-.524-.085-.205-.127-.426-.126-.648 0-.231.042-.448.126-.653.08-.199.198-.38.35-.53.15-.152.331-.27.53-.35.203-.087.422-.129.656-.129zm-8.603 6.944c-.349-.005-.695.062-1.016.197-.298.128-.565.317-.785.555-.22.238-.39.518-.51.84-.122.336-.183.691-.18 1.049 0 .376.06.726.18 1.048.12.324.29.604.51.842.22.236.481.422.785.553.304.132.643.198 1.016.198.358.006.712-.065 1.04-.208.3-.132.568-.325.79-.565.22-.241.39-.526.495-.835.117-.32.176-.664.176-1.033 0-.363-.059-.706-.176-1.03-.11-.31-.28-.596-.5-.84-.22-.24-.488-.432-.785-.564-.328-.142-.683-.213-1.04-.207zm29.23-.178c-.62 0-1.11.17-1.47.51-.36.34-.598.808-.71 1.409h4.291c-.12-.62-.36-1.095-.72-1.424-.36-.33-.825-.495-1.39-.495h-.001z" clip-rule="evenodd"/>
</svg>
