<svg xmlns="http://www.w3.org/2000/svg" width="80" height="61" fill="none" viewBox="0 0 80 61">
    <path stroke="#5528FF" stroke-width="2" d="M41.824 22.059L70.862 36.94c2.9 1.487 2.9 5.633 0 7.12L41.824 58.94c-1.145.587-2.503.587-3.648 0L9.138 44.06c-2.9-1.487-2.9-5.633 0-7.12L38.176 22.06c1.145-.587 2.503-.587 3.648 0z"/>
    <path fill="#fff" stroke="#5528FF" stroke-width="2" d="M41.824 12.059L70.862 26.94c2.9 1.487 2.9 5.633 0 7.12L41.824 48.94c-1.145.587-2.503.587-3.648 0L9.138 34.06c-2.9-1.487-2.9-5.633 0-7.12L38.176 12.06c1.145-.587 2.503-.587 3.648 0z"/>
    <path fill="#fff" stroke="#5528FF" stroke-width="2" d="M41.824 2.059L70.862 16.94c2.9 1.487 2.9 5.633 0 7.12L41.824 38.94c-1.145.587-2.503.587-3.648 0L9.138 24.06c-2.9-1.487-2.9-5.633 0-7.12L38.176 2.06c1.145-.587 2.503-.587 3.648 0z"/>
</svg>
