<svg xmlns="http://www.w3.org/2000/svg" width="80" height="60" fill="none" viewBox="0 0 80 60">
    <path fill="#5528FF" fill-rule="evenodd" d="M5 2h70c1.657 0 3 1.343 3 3v37H2V5c0-1.657 1.343-3 3-3zm75 42V5c0-2.761-2.239-5-5-5H5C2.239 0 0 2.239 0 5v40c0 2.761 2.239 5 5 5h34v8H26c-.552 0-1 .448-1 1s.448 1 1 1h28c.552 0 1-.448 1-1s-.448-1-1-1H41v-8h34c2.761 0 5-2.239 5-5v-1zM2 45v-1h76v1c0 1.657-1.343 3-3 3H5c-1.657 0-3-1.343-3-3zm38 2c.552 0 1-.448 1-1s-.448-1-1-1-1 .448-1 1 .448 1 1 1z" clip-rule="evenodd"/>
</svg>
